<svg width="40" height="40" viewBox="0 0 40 40" fill="none" xmlns="http://www.w3.org/2000/svg">
<path fill-rule="evenodd" clip-rule="evenodd" d="M20.0165 0.333496C8.94791 0.333496 0 9.34738 0 20.4988C0 29.4127 5.73324 36.9581 13.6868 39.6287C14.6812 39.8294 15.0454 39.1948 15.0454 38.6609C15.0454 38.1934 15.0126 36.591 15.0126 34.9214C9.4445 36.1235 8.28498 32.5176 8.28498 32.5176C7.39015 30.1805 6.06429 29.5798 6.06429 29.5798C4.24185 28.3445 6.19704 28.3445 6.19704 28.3445C8.21861 28.4781 9.27938 30.4144 9.27938 30.4144C11.0686 33.4857 13.9518 32.6179 15.1118 32.0837C15.2773 30.7816 15.8079 29.8802 16.3713 29.3795C11.9303 28.912 7.25781 27.176 7.25781 19.4302C7.25781 17.2267 8.05267 15.424 9.31216 14.0219C9.11344 13.5212 8.41733 11.4509 9.51128 8.67994C9.51128 8.67994 11.2014 8.14566 15.0122 10.7499C16.6438 10.3084 18.3263 10.0839 20.0165 10.082C21.7067 10.082 23.4295 10.316 25.0205 10.7499C28.8317 8.14566 30.5218 8.67994 30.5218 8.67994C31.6158 11.4509 30.9192 13.5212 30.7205 14.0219C32.0132 15.424 32.7753 17.2267 32.7753 19.4302C32.7753 27.176 28.1028 28.8784 23.6287 29.3795C24.358 30.0137 24.9873 31.2155 24.9873 33.1186C24.9873 35.8228 24.9545 37.9931 24.9545 38.6605C24.9545 39.1948 25.3192 39.8294 26.3132 39.6291C34.2667 36.9577 39.9999 29.4127 39.9999 20.4988C40.0327 9.34738 31.052 0.333496 20.0165 0.333496Z" fill="#F5F5F5"/>
</svg>
