<svg width="50" height="50" viewBox="0 0 50 50" fill="none" xmlns="http://www.w3.org/2000/svg">
<circle cx="25" cy="25" r="25" fill="#DBF228"/>
<path d="M11.1364 16.7841V12.7273H30.25V16.7841H23.125V36H18.2614V16.7841H11.1364Z" fill="#042940"/>
<path d="M32.3636 36.2557C31.0227 36.2557 29.8693 35.9716 28.9034 35.4034C27.9432 34.8295 27.2045 34.0341 26.6875 33.017C26.1761 32 25.9205 30.8295 25.9205 29.5057C25.9205 28.1648 26.179 26.9886 26.696 25.9773C27.2188 24.9602 27.9602 24.1676 28.9205 23.5994C29.8807 23.0256 31.0227 22.7386 32.3466 22.7386C33.4886 22.7386 34.4886 22.946 35.3466 23.3608C36.2045 23.7756 36.8835 24.358 37.3835 25.108C37.8835 25.858 38.1591 26.7386 38.2102 27.75H34.7841C34.6875 27.0966 34.4318 26.571 34.017 26.1733C33.608 25.7699 33.071 25.5682 32.4062 25.5682C31.8438 25.5682 31.3523 25.7216 30.9318 26.0284C30.517 26.3295 30.1932 26.7699 29.9602 27.3494C29.7273 27.929 29.6108 28.6307 29.6108 29.4545C29.6108 30.2898 29.7244 31 29.9517 31.5852C30.1847 32.1705 30.5114 32.6165 30.9318 32.9233C31.3523 33.2301 31.8438 33.3835 32.4062 33.3835C32.821 33.3835 33.1932 33.2983 33.5227 33.1278C33.858 32.9574 34.1335 32.7102 34.3494 32.3864C34.571 32.0568 34.7159 31.6619 34.7841 31.2017H38.2102C38.1534 32.2017 37.8807 33.0824 37.392 33.8438C36.9091 34.5994 36.2415 35.1903 35.3892 35.6165C34.5369 36.0426 33.5284 36.2557 32.3636 36.2557Z" fill="#042940"/>
</svg>
