<svg xmlns="http://www.w3.org/2000/svg" width="50" height="50" fill="none"><circle cx="25" cy="25" r="25" fill="#DBF228"/><path fill="#0D0D0D" d="M11.062 17.64v-3.52h14.88v3.52h-14.88ZM16.246 37V14.12h4.512V37h-4.512Z"/><path fill="#0D0D0D" d="M22.739 31.141V20.337h4.441V31.14H22.74Zm0-10.804c0-1.218.304-2.31.913-3.276a6.334 6.334 0 0 1 2.489-2.268c1.07-.546 2.278-.82 3.622-.82v3.466c-.798 0-1.428.252-1.89.756-.462.503-.693 1.218-.693 2.142H22.74Zm0 10.773h4.441c0 .923.231 1.648.693 2.173.462.504 1.092.756 1.89.756v3.465c-1.344 0-2.551-.273-3.622-.819-1.05-.567-1.88-1.323-2.489-2.268-.609-.966-.913-2.069-.913-3.308Zm10.143-9.765c-.084-1.218-.41-2.174-.977-2.867-.546-.693-1.27-1.04-2.173-1.04v-3.464c2.037 0 3.675.588 4.914 1.764 1.26 1.154 2.005 2.782 2.236 4.882l-4 .724Zm0 8.788 4 .693c-.23 2.1-.976 3.738-2.236 4.914-1.24 1.176-2.877 1.764-4.914 1.764v-3.465c.903 0 1.627-.346 2.173-1.04.567-.693.893-1.648.977-2.866Z"/><path fill="#0D0D0D" d="M11 14h18.2v1H11z"/></svg>